<svg xmlns="http://www.w3.org/2000/svg" width="12" height="11" viewBox="0 0 12 11">
  <metadata><?xpacket begin="﻿" id="W5M0MpCehiHzreSzNTczkc9d"?>
<x:xmpmeta xmlns:x="adobe:ns:meta/" x:xmptk="Adobe XMP Core 5.6-c138 79.159824, 2016/09/14-01:09:01        ">
   <rdf:RDF xmlns:rdf="http://www.w3.org/1999/02/22-rdf-syntax-ns#">
      <rdf:Description rdf:about=""/>
   </rdf:RDF>
</x:xmpmeta>
                                                                                                    
                                                                                                    
                                                                                                    
                                                                                                    
                                                                                                    
                                                                                                    
                                                                                                    
                                                                                                    
                                                                                                    
                                                                                                    
                                                                                                    
                                                                                                    
                                                                                                    
                                                                                                    
                                                                                                    
                                                                                                    
                                                                                                    
                                                                                                    
                                                                                                    
                                                                                                    
                           
<?xpacket end="w"?></metadata>
<defs>
    <style>
      .cls-1 {
        fill: #040813;
        fill-rule: evenodd;
      }
    </style>
  </defs>
  <path id="_" data-name="♥" class="cls-1" d="M964.045,1625c1.3-1.66,1.95-3.04,1.95-4.16a2.9,2.9,0,0,0-.726-2.03,2.57,2.57,0,0,0-2.018-.81,3.665,3.665,0,0,0-3.242,2.29,3.744,3.744,0,0,0-3.264-2.29,2.538,2.538,0,0,0-2.03.82,2.972,2.972,0,0,0-.714,2.04c0,1.12.65,2.5,1.95,4.16a21.231,21.231,0,0,0,4.058,3.98,21.361,21.361,0,0,0,4.036-4h0Z" transform="translate(-954 -1618)"/>
</svg>
